<?xml version="1.0" encoding="UTF-8" standalone="no"?>
<!-- Created with Inkscape (http://www.inkscape.org/) -->

<svg
   xmlns:dc="http://purl.org/dc/elements/1.1/"
   xmlns:cc="http://creativecommons.org/ns#"
   xmlns:rdf="http://www.w3.org/1999/02/22-rdf-syntax-ns#"
   xmlns:svg="http://www.w3.org/2000/svg"
   xmlns="http://www.w3.org/2000/svg"
   xmlns:inkscape="http://www.inkscape.org/namespaces/inkscape"
   version="1.1"
   width="744.09448"
   height="1052.3622"
   id="svg2">
  <defs
     id="defs4">
    <inkscape:path-effect
       effect="skeletal"
       id="path-effect3008" />
  </defs>
  <metadata
     id="metadata7">
    <rdf:RDF>
      <cc:Work
         rdf:about="">
        <dc:format>image/svg+xml</dc:format>
        <dc:type
           rdf:resource="http://purl.org/dc/dcmitype/StillImage" />
        <dc:title></dc:title>
      </cc:Work>
    </rdf:RDF>
  </metadata>
  <g
     id="layer1">
    <path
       d="m 491.41784,666.40725 0.0107,221.66922"
       id="path2989"
       style="fill:none;stroke:#000000;stroke-width:8;stroke-linecap:butt;stroke-linejoin:miter;stroke-miterlimit:4;stroke-opacity:1;stroke-dasharray:none" />
    <path
       d="M 245.46707,772.54993 C 357.594,502.8392 485.31516,662.25389 485.31516,662.25389"
       id="path14"
       style="fill:none;stroke:#000000;stroke-width:1px;stroke-linecap:butt;stroke-linejoin:miter;stroke-opacity:0.39215686" />
    <path
       d="M 102.85714,728.07647 C 354.28572,357.36218 555.07883,661.18061 555.07883,661.18061"
       id="path3821"
       style="fill:none;stroke:#000000;stroke-width:1px;stroke-linecap:butt;stroke-linejoin:miter;stroke-opacity:0.39215686" />
    <path
       d="m 102.85714,728.07647 142.60993,44.47346"
       id="path2992"
       style="fill:none;stroke:none" />
    <path
       d="m 485.31516,662.25389 69.76367,-1.07328"
       id="path2994"
       style="fill:#808080;stroke:none" />
    <path
       d="m 174.0307,749.1638 c -38.40548,-12.00922 -69.91904,-21.92904 -70.03015,-22.04405 -0.24868,-0.25742 9.12192,-13.78183 16.61098,-23.97429 39.58413,-53.8732 78.93335,-93.37249 119.71177,-120.16831 32.33868,-21.25 62.44421,-32.91901 96.72211,-37.48982 8.47968,-1.13073 32.05639,-1.26017 40.65863,-0.22322 17.76792,2.14182 36.48548,7.02774 53.03301,13.84344 37.14391,15.29904 74.67126,43.55401 105.49885,79.43185 6.6881,7.78377 16.79089,20.7981 16.42736,21.16163 -0.11277,0.11277 -15.28212,0.46345 -33.70965,0.77928 l -33.50459,0.57424 -5.13263,-5.41996 c -6.12576,-6.46869 -16.79886,-15.59474 -23.80517,-20.35465 -22.52617,-15.30368 -42.83559,-21.67491 -65.92773,-20.68203 -12.703,0.54618 -23.34764,3.27772 -35.35432,9.07234 -29.47442,14.22484 -55.69789,42.22991 -81.3324,86.85804 -6.69416,11.65414 -18.81168,36.05063 -25.00776,50.34873 -2.43772,5.62529 -4.56675,10.20393 -4.73119,10.17476 -0.16444,-0.0292 -31.72165,-9.87876 -70.12712,-21.88798 l 0,0 z"
       id="path3000"
       style="fill:#e6e6e6;fill-opacity:1;fill-rule:evenodd;stroke:none" />
    <g
       transform="translate(-18.571428,22.142857)"
       id="g3770">
      <path
         d="M 88.440167,800.13372 C 284.15446,528.70515 392.3821,558.33255 392.3821,558.33255"
         id="path2985"
         style="fill:none;stroke:#000000;stroke-width:2;stroke-linecap:butt;stroke-linejoin:miter;stroke-miterlimit:4;stroke-opacity:1;stroke-dasharray:none" />
      <path
         d="m 388.31191,524.46462 7.1639,59.61062"
         id="path3771"
         style="fill:none;stroke:#000000;stroke-width:4.9985323;stroke-linecap:butt;stroke-linejoin:miter;stroke-miterlimit:4;stroke-opacity:1;stroke-dasharray:none" />
    </g>
    <path
       d="m 734.33172,664.12731 -0.35693,221.26926"
       id="path2989-8"
       style="fill:none;stroke:#000000;stroke-width:8;stroke-linecap:butt;stroke-linejoin:miter;stroke-miterlimit:4;stroke-opacity:1;stroke-dasharray:none" />
    <path
       d="m 621.45778,627.89077 -0.30509,37.33292"
       id="path2989-2"
       style="fill:#c8beb7;stroke:#5a5a5a;stroke-width:1.90004969;stroke-linecap:butt;stroke-linejoin:miter;stroke-miterlimit:4;stroke-opacity:1;stroke-dasharray:7.60019872, 1.90004968;stroke-dashoffset:0" />
    <path
       d="m 342.9096,668.02401 c 401.32365,-4.1808 401.32365,-4.1808 401.32365,-4.1808"
       id="path2987"
       style="fill:none;stroke:#00a800;stroke-width:8.10491848;stroke-linecap:butt;stroke-linejoin:miter;stroke-miterlimit:4;stroke-opacity:1;stroke-dasharray:none" />
    <path
       d="m 485.11452,662.45641 c 0.0111,-0.018 0.14794,-0.1361 0.30403,-0.26245 0.15609,-0.12635 0.2838,-0.24266 0.2838,-0.25848 0,-0.0722 -1.57578,-1.90323 -2.77636,-3.22599 -4.46765,-4.92232 -9.95572,-10.13975 -15.45374,-14.69162 -1.65765,-1.37239 -1.54006,-1.26789 -1.52662,-1.35667 0.0102,-0.0675 0.1005,-10e-4 0.87795,0.64306 3.29757,2.73342 6.50151,5.56278 9.48751,8.3783 1.59959,1.50827 4.29967,4.24908 7.008,7.11374 l 2.61888,2.77002 0.37937,-10e-4 c 0.20866,-6.9e-4 6.82147,-0.11307 14.69513,-0.24973 l 14.31576,-0.24848 0.52086,0.52427 0.52086,0.52428 -0.15784,0.0235 c -0.0868,0.0129 -6.76329,0.0882 -14.83661,0.16737 -8.07333,0.0792 -15.03933,0.15269 -15.48,0.16342 -0.54984,0.0134 -0.79486,0.009 -0.78098,-0.0132 l 0,0 z"
       id="path3818"
       style="fill:#e6e6e6;fill-opacity:1;fill-rule:evenodd;stroke:none" />
    <path
       d="M 484.77171,661.59795 C 613.66767,433.64375 721.75399,461.92802 721.75399,461.92802"
       id="path3786"
       style="fill:none;stroke:#000000;stroke-width:1;stroke-linecap:butt;stroke-linejoin:miter;stroke-miterlimit:4;stroke-opacity:0.39215686;stroke-dasharray:none" />
    <path
       d="M 556.09127,661.51644 C 645.37073,542.63101 720.23646,557.38216 720.23646,557.38216"
       id="path3786-4"
       style="fill:none;stroke:#000000;stroke-width:1;stroke-linecap:butt;stroke-linejoin:miter;stroke-miterlimit:4;stroke-opacity:0.39215686;stroke-dasharray:none" />
    <path
       d="m 719.79671,461.54255 -1.70395,95.54975"
       id="path3806"
       style="fill:none;stroke:#000000;stroke-width:0;stroke-linecap:butt;stroke-linejoin:miter;stroke-miterlimit:4;stroke-opacity:1;stroke-dasharray:none;stroke-dashoffset:0" />
    <path
       d="m 554.66389,659.22172 c -1.63073,-2.76166 -12.52188,-16.49256 -18.50754,-23.33319 -3.28148,-3.75019 -9.29823,-10.26005 -13.37055,-14.46635 -4.07232,-4.20631 -7.40422,-7.77822 -7.40422,-7.93758 0,-0.97137 14.24593,-21.50696 23.17507,-33.407 6.59174,-8.78493 16.44921,-20.94965 24.76143,-30.55711 7.47945,-8.64492 28.86395,-30.18752 36.41124,-36.68043 34.5449,-29.71884 66.8653,-46.32213 98.15689,-50.4241 6.17024,-0.80885 15.11272,-1.01817 19.25312,-0.45066 l 2.3936,0.32808 -0.29636,5.35403 c -0.16299,2.94471 -0.43804,16.94552 -0.61122,31.11291 -0.17317,14.16739 -0.39383,25.89223 -0.49034,26.05519 -0.0965,0.16296 -0.20477,6.80525 -0.24058,14.76064 -0.0358,7.95538 -0.17654,14.89043 -0.31273,15.41122 -0.22461,0.85891 -1.00648,0.97714 -8.4161,1.27263 -11.3493,0.45259 -22.0024,2.51196 -33.92738,6.55853 -37.47176,12.7155 -76.92708,43.82755 -112.13872,88.42571 -3.04923,3.86207 -5.99862,7.56892 -6.5542,8.23746 l -1.01015,1.21551 -0.87126,-1.47549 z"
       id="path3814"
       style="fill:#ececec;fill-opacity:1;stroke:none" />
    <path
       d=""
       id="path3816"
       style="fill:#ececec;fill-opacity:1;stroke:#000000;stroke-width:0.50507629;stroke-miterlimit:4;stroke-opacity:1;stroke-dasharray:none;stroke-dashoffset:0" />
    <path
       d=""
       id="path3822"
       style="fill:#ececec;fill-opacity:1;stroke:#000000;stroke-width:0.50507629;stroke-miterlimit:4;stroke-opacity:1;stroke-dasharray:none;stroke-dashoffset:0" />
    <path
       d="m 718.53132,505.90195 c 0,0 -92.51752,-13.14255 -199.31128,155.83033 -176.77833,-216.97685 -355.15342,84.31431 -355.15342,84.31431"
       id="path2998"
       style="fill:none;stroke:#ea0000;stroke-width:1.99384701;stroke-linecap:butt;stroke-linejoin:miter;stroke-miterlimit:4;stroke-opacity:1;stroke-dasharray:none" />
  </g>
</svg>
