<?xml version="1.0" encoding="UTF-8" standalone="no"?>
<!-- Created with Inkscape (http://www.inkscape.org/) -->

<svg
   xmlns:dc="http://purl.org/dc/elements/1.1/"
   xmlns:cc="http://creativecommons.org/ns#"
   xmlns:rdf="http://www.w3.org/1999/02/22-rdf-syntax-ns#"
   xmlns:svg="http://www.w3.org/2000/svg"
   xmlns="http://www.w3.org/2000/svg"
   xmlns:sodipodi="http://sodipodi.sourceforge.net/DTD/sodipodi-0.dtd"
   xmlns:inkscape="http://www.inkscape.org/namespaces/inkscape"
   version="1.1"
   width="744.09448"
   height="1052.3622"
   id="svg2"
   inkscape:version="0.48.4 r9939"
   sodipodi:docname="drawing.svg">
  <sodipodi:namedview
     pagecolor="#ffffff"
     bordercolor="#666666"
     borderopacity="1"
     objecttolerance="10"
     gridtolerance="10"
     guidetolerance="10"
     inkscape:pageopacity="0"
     inkscape:pageshadow="2"
     inkscape:window-width="1839"
     inkscape:window-height="1050"
     id="namedview3145"
     showgrid="false"
     inkscape:zoom="1.6952339"
     inkscape:cx="286.5427"
     inkscape:cy="362.10772"
     inkscape:window-x="81"
     inkscape:window-y="30"
     inkscape:window-maximized="1"
     inkscape:current-layer="layer1" />
  <defs
     id="defs4">
    <inkscape:path-effect
       effect="skeletal"
       id="path-effect3008" />
  </defs>
  <metadata
     id="metadata7">
    <rdf:RDF>
      <cc:Work
         rdf:about="">
        <dc:format>image/svg+xml</dc:format>
        <dc:type
           rdf:resource="http://purl.org/dc/dcmitype/StillImage" />
        <dc:title />
      </cc:Work>
    </rdf:RDF>
  </metadata>
  <g
     id="layer1">
    <path
       sodipodi:type="arc"
       style="fill:#1a51b7;fill-opacity:0.16849817;fill-rule:evenodd;stroke:none;stroke-width:2.00016952000000003;stroke-miterlimit:4;stroke-opacity:0.75091576999999998;stroke-dasharray:4.00033894999999973, 2.00016947999999983;stroke-dashoffset:0"
       id="path3933"
       sodipodi:cx="176.96674"
       sodipodi:cy="624.10266"
       sodipodi:rx="122.10705"
       sodipodi:ry="129.7756"
       d="m 299.07378,624.10266 a 122.10705,129.7756 0 1 1 -244.214092,0 122.10705,129.7756 0 1 1 244.214092,0 z"
       transform="matrix(1.7678162,0,0,2.0883544,-170.38644,-550.05913)" />
    <path
       d="m 491.41784,666.40725 0.0107,221.66922"
       id="path2989"
       style="fill:none;stroke:#000000;stroke-width:8;stroke-linecap:butt;stroke-linejoin:miter;stroke-miterlimit:4;stroke-opacity:1;stroke-dasharray:none" />
    <path
       d="m 102.85714,728.07647 142.60993,44.47346"
       id="path2992"
       style="fill:none;stroke:none" />
    <path
       d="m 485.31516,662.25389 69.76367,-1.07328"
       id="path2994"
       style="fill:#808080;stroke:none" />
    <g
       transform="matrix(0.64298525,0,0,0.78834013,12.636397,191.68218)"
       id="g3770">
      <path
         d="M 88.440167,800.13372 C 284.15446,528.70515 392.3821,558.33255 392.3821,558.33255"
         id="path2985"
         style="fill:none;stroke:#000000;stroke-width:2;stroke-linecap:butt;stroke-linejoin:miter;stroke-miterlimit:4;stroke-opacity:1;stroke-dasharray:none"
         inkscape:connector-curvature="0" />
      <path
         d="m 373.39249,531.00274 20.48913,51.77225"
         id="path3771"
         style="fill:none;stroke:#000000;stroke-width:7.87800455;stroke-linecap:butt;stroke-linejoin:miter;stroke-miterlimit:4;stroke-opacity:1;stroke-dasharray:none"
         inkscape:connector-curvature="0" />
    </g>
    <path
       d="m 734.33172,664.12731 -0.35693,221.26926"
       id="path2989-8"
       style="fill:none;stroke:#000000;stroke-width:8;stroke-linecap:butt;stroke-linejoin:miter;stroke-miterlimit:4;stroke-opacity:1;stroke-dasharray:none" />
    <path
       d="m 621.45778,627.89077 -0.30509,37.33292"
       id="path2989-2"
       style="fill:#c8beb7;stroke:#5a5a5a;stroke-width:1.90004969;stroke-linecap:butt;stroke-linejoin:miter;stroke-miterlimit:4;stroke-opacity:1;stroke-dasharray:7.60019872, 1.90004968;stroke-dashoffset:0" />
    <path
       d="m 342.9096,668.02401 c 401.32365,-4.1808 401.32365,-4.1808 401.32365,-4.1808"
       id="path2987"
       style="fill:none;stroke:#00a800;stroke-width:8.10491848;stroke-linecap:butt;stroke-linejoin:miter;stroke-miterlimit:4;stroke-opacity:1;stroke-dasharray:none" />
    <path
       d="m 485.11452,662.45641 c 0.0111,-0.018 0.14794,-0.1361 0.30403,-0.26245 0.15609,-0.12635 0.2838,-0.24266 0.2838,-0.25848 0,-0.0722 -1.57578,-1.90323 -2.77636,-3.22599 -4.46765,-4.92232 -9.95572,-10.13975 -15.45374,-14.69162 -1.65765,-1.37239 -1.54006,-1.26789 -1.52662,-1.35667 0.0102,-0.0675 0.1005,-10e-4 0.87795,0.64306 3.29757,2.73342 6.50151,5.56278 9.48751,8.3783 1.59959,1.50827 4.29967,4.24908 7.008,7.11374 l 2.61888,2.77002 0.37937,-10e-4 c 0.20866,-6.9e-4 6.82147,-0.11307 14.69513,-0.24973 l 14.31576,-0.24848 0.52086,0.52427 0.52086,0.52428 -0.15784,0.0235 c -0.0868,0.0129 -6.76329,0.0882 -14.83661,0.16737 -8.07333,0.0792 -15.03933,0.15269 -15.48,0.16342 -0.54984,0.0134 -0.79486,0.009 -0.78098,-0.0132 l 0,0 z"
       id="path3818"
       style="fill:#e6e6e6;fill-opacity:1;fill-rule:evenodd;stroke:none" />
    <path
       d="m 719.79671,461.54255 -1.70395,95.54975"
       id="path3806"
       style="fill:none;stroke:#000000;stroke-width:0;stroke-linecap:butt;stroke-linejoin:miter;stroke-miterlimit:4;stroke-opacity:1;stroke-dasharray:none;stroke-dashoffset:0" />
    <path
       d=""
       id="path3816"
       style="fill:#ececec;fill-opacity:1;stroke:#000000;stroke-width:0.50507629;stroke-miterlimit:4;stroke-opacity:1;stroke-dasharray:none;stroke-dashoffset:0" />
    <path
       d=""
       id="path3822"
       style="fill:#ececec;fill-opacity:1;stroke:#000000;stroke-width:0.50507629;stroke-miterlimit:4;stroke-opacity:1;stroke-dasharray:none;stroke-dashoffset:0" />
    <path
       d="m 718.53132,505.90195 c 0,0 -92.51752,-13.14255 -199.31128,155.83033 -176.77833,-216.97685 -355.15342,84.31431 -355.15342,84.31431"
       id="path2998"
       style="fill:none;stroke:#ea0000;stroke-width:1.99384701;stroke-linecap:butt;stroke-linejoin:miter;stroke-miterlimit:4;stroke-opacity:1;stroke-dasharray:none" />
    <path
       inkscape:connector-curvature="0"
       d="m 209.99819,502.65308 0.005,507.16952"
       id="path2989-6"
       style="fill:none;stroke:#6c6c6c;stroke-width:2.00020981;stroke-linecap:butt;stroke-linejoin:miter;stroke-miterlimit:4;stroke-opacity:0.75091577;stroke-dasharray:4.00041947, 2.00020973;stroke-dashoffset:0" />
    <text
       xml:space="preserve"
       style="font-size:40px;font-style:normal;font-weight:normal;line-height:125%;letter-spacing:0px;word-spacing:0px;fill:#000000;fill-opacity:0.46886447;stroke:none;font-family:Sans"
       x="224.74776"
       y="520.28223"
       id="text3935"
       sodipodi:linespacing="125%"><tspan
         sodipodi:role="line"
         id="tspan3937"
         x="224.74776"
         y="520.28223">VHP</tspan></text>
  </g>
</svg>
